<mxfile host="Electron" modified="2024-02-28T10:49:54.875Z" agent="Mozilla/5.0 (Windows NT 10.0; Win64; x64) AppleWebKit/537.36 (KHTML, like Gecko) draw.io/23.1.5 Chrome/120.0.6099.109 Electron/28.1.0 Safari/537.36" etag="a032s0v3B9kYkE_HL3ch" version="23.1.5" type="device">
  <diagram name="第 1 页" id="TWuRRujr2en4SuEykSbz">
    <mxGraphModel dx="659" dy="494" grid="1" gridSize="10" guides="1" tooltips="1" connect="1" arrows="1" fold="1" page="1" pageScale="1" pageWidth="827" pageHeight="1169" math="0" shadow="0">
      <root>
        <mxCell id="0" />
        <mxCell id="1" parent="0" />
        <mxCell id="Y4zbyNaY06ZDim109fbG-41" value="" style="rounded=1;whiteSpace=wrap;html=1;" vertex="1" parent="1">
          <mxGeometry x="140" y="660" width="320" height="320" as="geometry" />
        </mxCell>
        <mxCell id="Y4zbyNaY06ZDim109fbG-32" value="" style="rounded=1;whiteSpace=wrap;html=1;" vertex="1" parent="1">
          <mxGeometry x="200" y="1020" width="200" height="240" as="geometry" />
        </mxCell>
        <mxCell id="Y4zbyNaY06ZDim109fbG-31" value="" style="rounded=1;whiteSpace=wrap;html=1;" vertex="1" parent="1">
          <mxGeometry x="130" y="380" width="340" height="240" as="geometry" />
        </mxCell>
        <mxCell id="C3GSY02iyrl4UMnzKNxi-18" value="" style="rounded=0;whiteSpace=wrap;html=1;strokeColor=none;" parent="1" vertex="1">
          <mxGeometry x="120" y="40" width="550" height="240" as="geometry" />
        </mxCell>
        <mxCell id="C3GSY02iyrl4UMnzKNxi-6" style="edgeStyle=orthogonalEdgeStyle;rounded=0;orthogonalLoop=1;jettySize=auto;html=1;entryX=0;entryY=0.5;entryDx=0;entryDy=0;" parent="1" source="C3GSY02iyrl4UMnzKNxi-1" target="C3GSY02iyrl4UMnzKNxi-4" edge="1">
          <mxGeometry relative="1" as="geometry" />
        </mxCell>
        <mxCell id="C3GSY02iyrl4UMnzKNxi-1" value="Features" style="rounded=0;whiteSpace=wrap;html=1;fillColor=#fff2cc;strokeColor=#d6b656;" parent="1" vertex="1">
          <mxGeometry x="150" y="140" width="100" height="40" as="geometry" />
        </mxCell>
        <mxCell id="C3GSY02iyrl4UMnzKNxi-5" style="edgeStyle=orthogonalEdgeStyle;rounded=0;orthogonalLoop=1;jettySize=auto;html=1;" parent="1" source="C3GSY02iyrl4UMnzKNxi-2" target="C3GSY02iyrl4UMnzKNxi-1" edge="1">
          <mxGeometry relative="1" as="geometry" />
        </mxCell>
        <mxCell id="C3GSY02iyrl4UMnzKNxi-2" value="&lt;b&gt;EIS&lt;/b&gt;" style="rounded=1;whiteSpace=wrap;html=1;fillColor=#fff2cc;strokeColor=#d6b656;" parent="1" vertex="1">
          <mxGeometry x="170" y="50" width="60" height="50" as="geometry" />
        </mxCell>
        <mxCell id="C3GSY02iyrl4UMnzKNxi-7" style="edgeStyle=orthogonalEdgeStyle;rounded=0;orthogonalLoop=1;jettySize=auto;html=1;entryX=0;entryY=0.5;entryDx=0;entryDy=0;" parent="1" source="C3GSY02iyrl4UMnzKNxi-3" target="C3GSY02iyrl4UMnzKNxi-4" edge="1">
          <mxGeometry relative="1" as="geometry" />
        </mxCell>
        <mxCell id="C3GSY02iyrl4UMnzKNxi-3" value="Charging Curve" style="rounded=0;whiteSpace=wrap;html=1;fillColor=#dae8fc;strokeColor=#6c8ebf;" parent="1" vertex="1">
          <mxGeometry x="150" y="220" width="100" height="40" as="geometry" />
        </mxCell>
        <mxCell id="C3GSY02iyrl4UMnzKNxi-10" style="edgeStyle=orthogonalEdgeStyle;rounded=0;orthogonalLoop=1;jettySize=auto;html=1;" parent="1" source="C3GSY02iyrl4UMnzKNxi-4" target="C3GSY02iyrl4UMnzKNxi-9" edge="1">
          <mxGeometry relative="1" as="geometry" />
        </mxCell>
        <mxCell id="C3GSY02iyrl4UMnzKNxi-4" value="&lt;b&gt;DNN&lt;/b&gt;" style="rounded=1;whiteSpace=wrap;html=1;fillColor=#e1d5e7;strokeColor=#9673a6;" parent="1" vertex="1">
          <mxGeometry x="320" y="180" width="50" height="40" as="geometry" />
        </mxCell>
        <mxCell id="C3GSY02iyrl4UMnzKNxi-9" value="SOH(t)" style="rounded=0;whiteSpace=wrap;html=1;fillColor=#f8cecc;strokeColor=#b85450;" parent="1" vertex="1">
          <mxGeometry x="400" y="185" width="50" height="30" as="geometry" />
        </mxCell>
        <mxCell id="C3GSY02iyrl4UMnzKNxi-11" value="SOH(0)" style="rounded=0;whiteSpace=wrap;html=1;fillColor=#f8cecc;strokeColor=#b85450;" parent="1" vertex="1">
          <mxGeometry x="400" y="80" width="50" height="30" as="geometry" />
        </mxCell>
        <mxCell id="C3GSY02iyrl4UMnzKNxi-12" value="SOH(1)" style="rounded=0;whiteSpace=wrap;html=1;fillColor=#f8cecc;strokeColor=#b85450;" parent="1" vertex="1">
          <mxGeometry x="400" y="110" width="50" height="30" as="geometry" />
        </mxCell>
        <mxCell id="C3GSY02iyrl4UMnzKNxi-13" value="" style="endArrow=none;html=1;rounded=0;" parent="1" edge="1">
          <mxGeometry width="50" height="50" relative="1" as="geometry">
            <mxPoint x="460" y="215" as="sourcePoint" />
            <mxPoint x="460" y="75" as="targetPoint" />
          </mxGeometry>
        </mxCell>
        <mxCell id="C3GSY02iyrl4UMnzKNxi-14" value="" style="endArrow=classic;html=1;rounded=0;entryX=0;entryY=0.5;entryDx=0;entryDy=0;" parent="1" edge="1">
          <mxGeometry width="50" height="50" relative="1" as="geometry">
            <mxPoint x="460" y="149.66" as="sourcePoint" />
            <mxPoint x="500" y="149.66" as="targetPoint" />
          </mxGeometry>
        </mxCell>
        <mxCell id="C3GSY02iyrl4UMnzKNxi-17" style="edgeStyle=orthogonalEdgeStyle;rounded=0;orthogonalLoop=1;jettySize=auto;html=1;" parent="1" source="C3GSY02iyrl4UMnzKNxi-15" target="C3GSY02iyrl4UMnzKNxi-16" edge="1">
          <mxGeometry relative="1" as="geometry" />
        </mxCell>
        <mxCell id="C3GSY02iyrl4UMnzKNxi-15" value="&lt;p style=&quot;language:zh-CN;margin-top:0pt;margin-bottom:0pt;margin-left:0in;&lt;br/&gt;text-align:left;direction:ltr;unicode-bidi:embed;mso-line-break-override:none;&lt;br/&gt;word-break:normal;punctuation-wrap:hanging&quot;&gt;&lt;b&gt;Time Series Forecasting Model&lt;/b&gt;&lt;/p&gt;" style="rounded=1;whiteSpace=wrap;html=1;fillColor=#e1d5e7;strokeColor=#9673a6;" parent="1" vertex="1">
          <mxGeometry x="500" y="120" width="150" height="60" as="geometry" />
        </mxCell>
        <mxCell id="C3GSY02iyrl4UMnzKNxi-16" value="RUL" style="rounded=0;whiteSpace=wrap;html=1;fillColor=#d5e8d4;strokeColor=#82b366;" parent="1" vertex="1">
          <mxGeometry x="550" y="215" width="50" height="40" as="geometry" />
        </mxCell>
        <mxCell id="C3GSY02iyrl4UMnzKNxi-19" value="..." style="rounded=0;whiteSpace=wrap;html=1;fillColor=#f8cecc;strokeColor=#b85450;" parent="1" vertex="1">
          <mxGeometry x="400" y="140" width="50" height="30" as="geometry" />
        </mxCell>
        <mxCell id="C3GSY02iyrl4UMnzKNxi-20" value="" style="shape=curlyBracket;whiteSpace=wrap;html=1;rounded=1;labelPosition=left;verticalLabelPosition=middle;align=right;verticalAlign=middle;" parent="1" vertex="1">
          <mxGeometry x="370" y="80" width="20" height="90" as="geometry" />
        </mxCell>
        <mxCell id="C3GSY02iyrl4UMnzKNxi-21" value="History" style="text;html=1;strokeColor=none;fillColor=none;align=center;verticalAlign=middle;whiteSpace=wrap;rounded=0;" parent="1" vertex="1">
          <mxGeometry x="310" y="110" width="60" height="30" as="geometry" />
        </mxCell>
        <mxCell id="C3GSY02iyrl4UMnzKNxi-22" value="extraction" style="text;html=1;strokeColor=none;fillColor=none;align=center;verticalAlign=middle;whiteSpace=wrap;rounded=0;" parent="1" vertex="1">
          <mxGeometry x="210" y="100" width="60" height="30" as="geometry" />
        </mxCell>
        <mxCell id="Y4zbyNaY06ZDim109fbG-1" value="充放电曲线" style="rounded=0;whiteSpace=wrap;html=1;fillColor=#fff2cc;strokeColor=#d6b656;" vertex="1" parent="1">
          <mxGeometry x="160" y="400" width="120" height="40" as="geometry" />
        </mxCell>
        <mxCell id="Y4zbyNaY06ZDim109fbG-5" value="" style="edgeStyle=orthogonalEdgeStyle;rounded=0;orthogonalLoop=1;jettySize=auto;html=1;" edge="1" parent="1" source="Y4zbyNaY06ZDim109fbG-1" target="Y4zbyNaY06ZDim109fbG-4">
          <mxGeometry relative="1" as="geometry">
            <mxPoint x="210" y="440" as="sourcePoint" />
            <mxPoint x="210" y="520" as="targetPoint" />
            <Array as="points">
              <mxPoint x="210" y="510" />
              <mxPoint x="210" y="510" />
            </Array>
          </mxGeometry>
        </mxCell>
        <mxCell id="Y4zbyNaY06ZDim109fbG-7" style="edgeStyle=orthogonalEdgeStyle;rounded=0;orthogonalLoop=1;jettySize=auto;html=1;" edge="1" parent="1" source="Y4zbyNaY06ZDim109fbG-4" target="Y4zbyNaY06ZDim109fbG-6">
          <mxGeometry relative="1" as="geometry" />
        </mxCell>
        <mxCell id="Y4zbyNaY06ZDim109fbG-4" value="&lt;b&gt;CNN1d&lt;/b&gt;" style="rounded=1;whiteSpace=wrap;html=1;fillColor=#e1d5e7;strokeColor=#9673a6;" vertex="1" parent="1">
          <mxGeometry x="160" y="480" width="120" height="40" as="geometry" />
        </mxCell>
        <mxCell id="Y4zbyNaY06ZDim109fbG-6" value="curve features" style="rounded=0;whiteSpace=wrap;html=1;fillColor=#fff2cc;strokeColor=#d6b656;" vertex="1" parent="1">
          <mxGeometry x="160" y="560" width="120" height="40" as="geometry" />
        </mxCell>
        <mxCell id="Y4zbyNaY06ZDim109fbG-8" value="EIS" style="rounded=0;whiteSpace=wrap;html=1;fillColor=#fff2cc;strokeColor=#d6b656;" vertex="1" parent="1">
          <mxGeometry x="320" y="400" width="120" height="40" as="geometry" />
        </mxCell>
        <mxCell id="Y4zbyNaY06ZDim109fbG-9" value="" style="edgeStyle=orthogonalEdgeStyle;rounded=0;orthogonalLoop=1;jettySize=auto;html=1;" edge="1" parent="1" source="Y4zbyNaY06ZDim109fbG-8" target="Y4zbyNaY06ZDim109fbG-11">
          <mxGeometry relative="1" as="geometry">
            <mxPoint x="370" y="440" as="sourcePoint" />
            <mxPoint x="370" y="520" as="targetPoint" />
            <Array as="points">
              <mxPoint x="370" y="510" />
              <mxPoint x="370" y="510" />
            </Array>
          </mxGeometry>
        </mxCell>
        <mxCell id="Y4zbyNaY06ZDim109fbG-10" style="edgeStyle=orthogonalEdgeStyle;rounded=0;orthogonalLoop=1;jettySize=auto;html=1;" edge="1" parent="1" source="Y4zbyNaY06ZDim109fbG-11" target="Y4zbyNaY06ZDim109fbG-12">
          <mxGeometry relative="1" as="geometry" />
        </mxCell>
        <mxCell id="Y4zbyNaY06ZDim109fbG-11" value="&lt;b&gt;?&lt;/b&gt;" style="rounded=1;whiteSpace=wrap;html=1;fillColor=#e1d5e7;strokeColor=#9673a6;" vertex="1" parent="1">
          <mxGeometry x="320" y="480" width="120" height="40" as="geometry" />
        </mxCell>
        <mxCell id="Y4zbyNaY06ZDim109fbG-12" value="EIS features" style="rounded=0;whiteSpace=wrap;html=1;fillColor=#fff2cc;strokeColor=#d6b656;" vertex="1" parent="1">
          <mxGeometry x="320" y="560" width="120" height="40" as="geometry" />
        </mxCell>
        <mxCell id="Y4zbyNaY06ZDim109fbG-21" value="SOH(t)" style="rounded=0;whiteSpace=wrap;html=1;fillColor=#dae8fc;strokeColor=#6c8ebf;" vertex="1" parent="1">
          <mxGeometry x="340" y="1040" width="40" height="40" as="geometry" />
        </mxCell>
        <mxCell id="Y4zbyNaY06ZDim109fbG-22" value="SOH(0) to SOH(t-1)" style="rounded=0;whiteSpace=wrap;html=1;fillColor=#dae8fc;strokeColor=#6c8ebf;" vertex="1" parent="1">
          <mxGeometry x="220" y="1040" width="120" height="40" as="geometry" />
        </mxCell>
        <mxCell id="Y4zbyNaY06ZDim109fbG-23" value="" style="endArrow=classic;html=1;rounded=0;exitX=0.67;exitY=0.989;exitDx=0;exitDy=0;exitPerimeter=0;" edge="1" parent="1" source="Y4zbyNaY06ZDim109fbG-22" target="Y4zbyNaY06ZDim109fbG-25">
          <mxGeometry width="50" height="50" relative="1" as="geometry">
            <mxPoint x="350" y="1160" as="sourcePoint" />
            <mxPoint x="360" y="1120" as="targetPoint" />
          </mxGeometry>
        </mxCell>
        <mxCell id="Y4zbyNaY06ZDim109fbG-29" style="edgeStyle=orthogonalEdgeStyle;rounded=0;orthogonalLoop=1;jettySize=auto;html=1;" edge="1" parent="1" source="Y4zbyNaY06ZDim109fbG-25" target="Y4zbyNaY06ZDim109fbG-26">
          <mxGeometry relative="1" as="geometry" />
        </mxCell>
        <mxCell id="Y4zbyNaY06ZDim109fbG-25" value="&lt;b&gt;?&lt;/b&gt;" style="rounded=1;whiteSpace=wrap;html=1;fillColor=#e1d5e7;strokeColor=#9673a6;" vertex="1" parent="1">
          <mxGeometry x="240" y="1120" width="120" height="40" as="geometry" />
        </mxCell>
        <mxCell id="Y4zbyNaY06ZDim109fbG-26" value="RUL" style="rounded=0;whiteSpace=wrap;html=1;fillColor=#d5e8d4;strokeColor=#82b366;" vertex="1" parent="1">
          <mxGeometry x="260" y="1200" width="80" height="40" as="geometry" />
        </mxCell>
        <mxCell id="Y4zbyNaY06ZDim109fbG-33" value="curve features" style="rounded=0;whiteSpace=wrap;html=1;fillColor=#fff2cc;strokeColor=#d6b656;" vertex="1" parent="1">
          <mxGeometry x="160" y="680" width="120" height="40" as="geometry" />
        </mxCell>
        <mxCell id="Y4zbyNaY06ZDim109fbG-34" value="EIS features" style="rounded=0;whiteSpace=wrap;html=1;fillColor=#fff2cc;strokeColor=#d6b656;" vertex="1" parent="1">
          <mxGeometry x="320" y="680" width="120" height="40" as="geometry" />
        </mxCell>
        <mxCell id="Y4zbyNaY06ZDim109fbG-35" value="" style="shape=curlyBracket;whiteSpace=wrap;html=1;rounded=1;flipH=1;labelPosition=right;verticalLabelPosition=middle;align=left;verticalAlign=middle;rotation=90;" vertex="1" parent="1">
          <mxGeometry x="290" y="600" width="20" height="280" as="geometry" />
        </mxCell>
        <mxCell id="Y4zbyNaY06ZDim109fbG-36" style="edgeStyle=orthogonalEdgeStyle;rounded=0;orthogonalLoop=1;jettySize=auto;html=1;" edge="1" parent="1" source="Y4zbyNaY06ZDim109fbG-37" target="Y4zbyNaY06ZDim109fbG-39">
          <mxGeometry relative="1" as="geometry" />
        </mxCell>
        <mxCell id="Y4zbyNaY06ZDim109fbG-37" value="features" style="rounded=0;whiteSpace=wrap;html=1;fillColor=#fff2cc;strokeColor=#d6b656;" vertex="1" parent="1">
          <mxGeometry x="240" y="760" width="120" height="40" as="geometry" />
        </mxCell>
        <mxCell id="Y4zbyNaY06ZDim109fbG-38" style="edgeStyle=orthogonalEdgeStyle;rounded=0;orthogonalLoop=1;jettySize=auto;html=1;" edge="1" parent="1" source="Y4zbyNaY06ZDim109fbG-39" target="Y4zbyNaY06ZDim109fbG-40">
          <mxGeometry relative="1" as="geometry" />
        </mxCell>
        <mxCell id="Y4zbyNaY06ZDim109fbG-39" value="&lt;b&gt;?&lt;/b&gt;" style="rounded=1;whiteSpace=wrap;html=1;fillColor=#e1d5e7;strokeColor=#9673a6;" vertex="1" parent="1">
          <mxGeometry x="240" y="840" width="120" height="40" as="geometry" />
        </mxCell>
        <mxCell id="Y4zbyNaY06ZDim109fbG-40" value="SOH(t)" style="rounded=0;whiteSpace=wrap;html=1;fillColor=#dae8fc;strokeColor=#6c8ebf;" vertex="1" parent="1">
          <mxGeometry x="280" y="920" width="40" height="40" as="geometry" />
        </mxCell>
      </root>
    </mxGraphModel>
  </diagram>
</mxfile>
